<?xml version="1.0" encoding="UTF-8"?>
<svg width="512" height="512" viewBox="0 0 512 512" fill="none" xmlns="http://www.w3.org/2000/svg">
  <!-- Background gradient -->
  <defs>
    <linearGradient id="gradient" x1="0%" y1="0%" x2="100%" y2="100%">
      <stop offset="0%" stop-color="#7F00FF" />
      <stop offset="100%" stop-color="#E100FF" />
    </linearGradient>
    <!-- Glow effect -->
    <filter id="glow" x="-20%" y="-20%" width="140%" height="140%">
      <feGaussianBlur stdDeviation="12" result="blur" />
      <feComposite in="SourceGraphic" in2="blur" operator="over" />
    </filter>
  </defs>
  
  <!-- Main circular background -->
  <circle cx="256" cy="256" r="240" fill="url(#gradient)" />
  
  <!-- Smart home icon -->
  <g filter="url(#glow)">
    <!-- House outline -->
    <path d="M256 120L136 220V376H376V220L256 120Z" stroke="white" stroke-width="16" stroke-linejoin="round"/>
    
    <!-- Smart device elements -->
    <rect x="216" y="280" width="80" height="96" rx="8" stroke="white" stroke-width="12" fill="none"/>
    
    <!-- Power button -->
    <circle cx="256" cy="328" r="20" fill="white"/>
    <path d="M256 300V320" stroke="#7F00FF" stroke-width="8" stroke-linecap="round"/>
    
    <!-- Pulse animation circles -->
    <circle cx="256" cy="210" r="24" fill="white" opacity="0.7"/>
    <circle cx="256" cy="210" r="40" stroke="white" stroke-width="4" stroke-dasharray="12 8" opacity="0.5"/>
  </g>
  
  <!-- Wave shapes (reminiscent of TikTok) -->
  <path d="M128 230C160 210 208 240 256 240C304 240 352 210 384 230" stroke="white" stroke-width="8" stroke-linecap="round" opacity="0.7"/>
  <path d="M128 270C160 250 208 280 256 280C304 280 352 250 384 270" stroke="white" stroke-width="8" stroke-linecap="round" opacity="0.4"/>
</svg> 